<?xml version="1.0" encoding="UTF-8"?><svg id="Layer_2" xmlns="http://www.w3.org/2000/svg" viewBox="0 0 640 102.2"><defs><style>.cls-1{fill:#222;}</style></defs><g id="Layer_1-2"><g id="Reblocs"><path class="cls-1" d="M602.48,102.06c-8.76,0-16.52-1.83-23.29-5.48-6.77-3.65-11.71-8.98-14.82-15.98l17.81-8.91c1.56,3.5,4.06,6.18,7.52,8.03,3.45,1.85,7.71,2.78,12.78,2.78,3.11,0,5.86-.42,8.25-1.24,2.38-.83,4.31-2.05,5.77-3.65s2.19-3.58,2.19-5.91c0-2.72-.78-4.79-2.33-6.21-1.56-1.41-3.7-2.45-6.42-3.13-2.73-.68-5.79-1.31-9.2-1.9-3.7-.68-7.57-1.58-11.61-2.7-4.04-1.11-7.84-2.75-11.39-4.88-3.55-2.14-6.4-5.04-8.54-8.69-2.14-3.65-3.21-8.19-3.21-13.65,0-5.84,1.56-11.02,4.67-15.55,3.11-4.53,7.4-8.13,12.85-10.81,5.45-2.68,11.54-4.01,18.25-4.01,8.18,0,15.52,1.83,22.05,5.48,6.52,3.65,11.34,8.98,14.45,15.98l-17.81,8.91c-1.56-3.21-3.97-5.79-7.23-7.74s-7.37-2.92-12.34-2.92c-2.63,0-4.96,.39-7.01,1.17-2.04,.78-3.65,1.89-4.82,3.36-1.17,1.46-1.75,3.21-1.75,5.26,0,2.63,.82,4.69,2.48,6.2,1.65,1.52,3.92,2.66,6.79,3.44,2.87,.78,6.06,1.5,9.56,2.19,3.7,.68,7.52,1.59,11.46,2.7,3.94,1.12,7.6,2.76,10.95,4.9,3.36,2.14,6.11,5.02,8.25,8.61,2.14,3.61,3.21,8.23,3.21,13.88s-1.68,11.07-5.04,15.69-7.86,8.25-13.51,10.88c-5.65,2.63-11.97,3.94-18.98,3.94Z"/><path class="cls-1" d="M512.28,102.2c-7.2,0-13.87-1.31-20-3.94s-11.53-6.28-16.21-10.95-8.3-10.1-10.88-16.28c-2.58-6.19-3.87-12.83-3.87-19.93s1.29-13.87,3.87-20c2.58-6.13,6.2-11.54,10.88-16.21,4.67-4.67,10.07-8.32,16.21-10.95,6.13-2.63,12.8-3.94,20-3.94,5.65,0,11.14,.97,16.5,2.91,5.35,1.95,10.15,4.73,14.38,8.32,4.23,3.61,7.52,7.99,9.86,13.14l-17.38,9.79c-2.43-4.29-5.6-7.67-9.49-10.15s-8.81-3.73-14.75-3.73c-4.09,0-7.86,.76-11.32,2.27-3.46,1.5-6.45,3.65-8.98,6.42-2.53,2.77-4.48,6.03-5.84,9.78-1.36,3.75-2.05,7.86-2.05,12.34s.68,8.47,2.05,12.26c1.36,3.8,3.28,7.08,5.77,9.85,2.48,2.78,5.48,4.92,8.98,6.42,3.51,1.52,7.3,2.27,11.39,2.27,5.94,0,10.88-1.27,14.82-3.8,3.94-2.53,7.08-5.89,9.42-10.08l17.38,9.79c-2.34,5.16-5.62,9.54-9.86,13.14-4.23,3.6-9.03,6.38-14.38,8.32-5.36,1.94-10.86,2.91-16.5,2.91Z"/><path class="cls-1" d="M399.51,102.06c-7.2,0-13.92-1.27-20.15-3.8-6.23-2.53-11.66-6.1-16.28-10.73-4.62-4.62-8.23-10.05-10.8-16.28-2.58-6.22-3.87-12.95-3.87-20.15s1.29-13.92,3.87-20.15c2.58-6.23,6.18-11.63,10.8-16.21,4.62-4.57,10.05-8.16,16.28-10.74,6.23-2.58,12.95-3.87,20.15-3.87s14.04,1.29,20.22,3.87c6.18,2.58,11.61,6.16,16.28,10.74,4.67,4.57,8.3,9.97,10.88,16.21,2.58,6.23,3.87,12.95,3.87,20.15s-1.29,13.92-3.87,20.15c-2.58,6.23-6.21,11.66-10.88,16.28-4.67,4.63-10.1,8.2-16.28,10.73-6.18,2.53-12.92,3.8-20.22,3.8Zm0-20.15c4.09,0,7.91-.78,11.46-2.34,3.55-1.55,6.67-3.74,9.34-6.57s4.75-6.11,6.21-9.85c1.46-3.75,2.19-7.76,2.19-12.05s-.73-8.42-2.19-12.12c-1.46-3.7-3.53-6.96-6.21-9.78-2.68-2.82-5.79-5.01-9.34-6.57s-7.37-2.34-11.46-2.34-7.91,.78-11.46,2.34-6.67,3.75-9.34,6.57c-2.68,2.82-4.74,6.08-6.2,9.78-1.46,3.7-2.19,7.74-2.19,12.12s.73,8.3,2.19,12.05c1.46,3.74,3.53,7.03,6.2,9.85s5.79,5.02,9.34,6.57c3.55,1.56,7.37,2.34,11.46,2.34Z"/><polygon class="cls-1" points="302.39 80.45 298.31 80.45 298.31 1.9 276.99 1.9 276.99 80.45 276.99 81.91 276.99 100.16 295.82 100.16 302.39 100.16 344.15 100.16 344.15 80.45 302.39 80.45"/><path class="cls-1" d="M255.79,58.77c-2.73-3.36-6.42-5.72-11.1-7.08-.49-.14-1.05-.19-1.55-.32,.44-.16,.91-.3,1.33-.48,4.43-1.9,7.93-4.7,10.51-8.4,2.58-3.7,3.87-8.23,3.87-13.58,0-8.37-3.48-14.97-10.44-19.79-6.96-4.82-16.57-7.22-28.83-7.22h-37.96V35.85l15.99,15.16-15.99,15.16v33.99h37.67c5.94,0,11.36-.54,16.28-1.61,4.91-1.07,9.2-2.7,12.85-4.89,3.65-2.19,6.47-5.04,8.47-8.54,1.99-3.51,2.99-7.64,2.99-12.41,0-5.94-1.36-10.59-4.09-13.94Zm-52.85-39.35h17.81c5.45,0,9.61,.95,12.48,2.84,2.87,1.9,4.31,4.71,4.31,8.4,0,4-1.36,7.01-4.09,9.05-2.73,2.05-7.01,3.07-12.85,3.07h-17.67V19.42Zm34.24,57.45c-.93,1.51-2.19,2.68-3.8,3.5-1.61,.84-3.51,1.42-5.69,1.76-2.19,.35-4.6,.51-7.23,.51h-17.52v-22.34h17.67c5.94,0,10.41,.78,13.43,2.34,3.02,1.55,4.53,4.43,4.53,8.61,0,2.25-.46,4.12-1.39,5.62Z"/><polygon class="cls-1" points="116.67 81.01 116.67 60.57 145.15 60.57 145.15 41.44 116.67 41.44 116.67 21 124.81 21 161.65 21 161.65 1.88 124.81 1.88 114.19 1.88 95.36 1.88 95.36 20.27 95.36 21 95.36 81.01 95.36 81.89 95.36 100.14 114.19 100.14 124.81 100.14 162.52 100.14 162.52 81.01 116.67 81.01"/><path class="cls-1" d="M71.7,80.74c-2.63-5.45-5.14-9.9-7.52-13.37-2.1-3.02-4.59-5.37-7.47-7.02,2.28-.6,4.41-1.45,6.37-2.53,4.38-2.44,7.82-5.77,10.29-10.01,2.49-4.24,3.73-9.12,3.73-14.67,0-7.02-1.73-12.83-5.19-17.46-3.46-4.61-8.15-8.07-14.08-10.37-5.94-2.28-12.61-3.42-20-3.42H0V100.16H21.03l.12-31.4h8.35c3.71,0,6.74,.54,9.13,1.61,2.38,1.08,4.4,2.63,6.05,4.66,1.66,2.04,3.22,4.58,4.67,7.6l8.76,17.52h23.06l-9.48-19.42Zm-18.77-37.59c-1.51,2.18-3.55,3.84-6.13,4.95-2.57,1.12-5.57,1.69-8.97,1.69H21.22l.11-28.18h16.79c3.2,0,6.11,.47,8.68,1.39,2.58,.92,4.63,2.38,6.13,4.38,1.51,2,2.27,4.65,2.27,7.96,0,3.01-.77,5.62-2.27,7.82Z"/></g></g></svg>